<svg width="157" height="74" viewBox="0 0 157 74" fill="none" xmlns="http://www.w3.org/2000/svg">
<path d="M0 18.1494H4.47282V39.4239H0V18.1494Z" fill="#29292E"/>
<path d="M22.5872 31.7685C22.5872 31.8259 22.5585 32.2273 22.5012 32.9727H10.8317C11.042 33.9285 11.5389 34.6835 12.3226 35.2378C13.1063 35.7921 14.0812 36.0693 15.2472 36.0693C16.05 36.0693 16.7572 35.9546 17.3689 35.7252C17.9997 35.4767 18.5827 35.0945 19.1179 34.5784L21.4977 37.1588C20.0449 38.8218 17.9232 39.6533 15.1325 39.6533C13.3931 39.6533 11.8543 39.3188 10.5163 38.6498C9.1783 37.9616 8.14611 37.0155 7.41975 35.8113C6.6934 34.607 6.33022 33.2403 6.33022 31.7112C6.33022 30.2011 6.68384 28.844 7.39108 27.6398C8.11744 26.4164 9.10184 25.4702 10.3443 24.8012C11.6059 24.1131 13.0108 23.769 14.5591 23.769C16.0691 23.769 17.4358 24.094 18.6591 24.7439C19.8825 25.3938 20.8382 26.3304 21.5263 27.5537C22.2336 28.758 22.5872 30.1629 22.5872 31.7685ZM14.5877 27.1523C13.5747 27.1523 12.7241 27.4391 12.0359 28.0125C11.3478 28.5859 10.9273 29.3696 10.7744 30.3636H18.3724C18.2195 29.3887 17.799 28.6146 17.1109 28.0412C16.4227 27.4486 15.5817 27.1523 14.5877 27.1523Z" fill="#29292E"/>
<path d="M34.3673 38.6784C33.9277 39.0034 33.3829 39.2519 32.733 39.4239C32.1022 39.5768 31.4332 39.6533 30.726 39.6533C28.891 39.6533 27.4669 39.185 26.4539 38.2484C25.4599 37.3117 24.9629 35.9355 24.9629 34.1196V27.7831H22.5832V24.3425H24.9629V20.5865H29.4357V24.3425H33.2778V27.7831H29.4357V34.0623C29.4357 34.7122 29.5982 35.2187 29.9232 35.5819C30.2672 35.9259 30.7451 36.098 31.3568 36.098C32.064 36.098 32.6661 35.9068 33.1631 35.5245L34.3673 38.6784Z" fill="#29292E"/>
<path d="M55.4862 23.769C57.4168 23.769 58.9459 24.3425 60.0737 25.4894C61.2206 26.6171 61.794 28.3183 61.794 30.593V39.4239H57.3212V31.2811C57.3212 30.0578 57.0631 29.1498 56.5471 28.5573C56.0501 27.9456 55.3333 27.6398 54.3967 27.6398C53.3454 27.6398 52.5139 27.9838 51.9022 28.6719C51.2905 29.341 50.9847 30.3445 50.9847 31.6825V39.4239H46.5119V31.2811C46.5119 28.8535 45.537 27.6398 43.5873 27.6398C42.5552 27.6398 41.7332 27.9838 41.1216 28.6719C40.5099 29.341 40.2041 30.3445 40.2041 31.6825V39.4239H35.7312V23.9984H40.0034V25.7761C40.5768 25.1262 41.2745 24.6292 42.0964 24.2851C42.9375 23.9411 43.855 23.769 44.8489 23.769C45.9384 23.769 46.9228 23.9889 47.8021 24.4285C48.6814 24.849 49.3886 25.4702 49.9238 26.2922C50.5546 25.4894 51.3479 24.8681 52.3036 24.4285C53.2785 23.9889 54.3393 23.769 55.4862 23.769Z" fill="#29292E"/>
<path d="M79.9344 31.7685C79.9344 31.8259 79.9057 32.2273 79.8484 32.9727H68.1789C68.3891 33.9285 68.8861 34.6835 69.6698 35.2378C70.4535 35.7921 71.4284 36.0693 72.5944 36.0693C73.3972 36.0693 74.1044 35.9546 74.7161 35.7252C75.3469 35.4767 75.9299 35.0945 76.4651 34.5784L78.8448 37.1588C77.3921 38.8218 75.2704 39.6533 72.4797 39.6533C70.7402 39.6533 69.2015 39.3188 67.8635 38.6498C66.5255 37.9616 65.4933 37.0155 64.7669 35.8113C64.0406 34.607 63.6774 33.2403 63.6774 31.7112C63.6774 30.2011 64.031 28.844 64.7383 27.6398C65.4646 26.4164 66.449 25.4702 67.6915 24.8012C68.953 24.1131 70.3579 23.769 71.9062 23.769C73.4163 23.769 74.783 24.094 76.0063 24.7439C77.2297 25.3938 78.1854 26.3304 78.8735 27.5537C79.5807 28.758 79.9344 30.1629 79.9344 31.7685ZM71.9349 27.1523C70.9218 27.1523 70.0712 27.4391 69.3831 28.0125C68.695 28.5859 68.2745 29.3696 68.1215 30.3636H75.7196C75.5667 29.3887 75.1462 28.6146 74.458 28.0412C73.7699 27.4486 72.9289 27.1523 71.9349 27.1523Z" fill="#29292E"/>
<path d="M106.086 23.9984L103.018 39.4239H98.7747L99.0615 37.9043C97.7808 39.0703 96.2038 39.6533 94.3306 39.6533C93.1264 39.6533 92.0177 39.3761 91.0047 38.8218C89.9916 38.2675 89.1792 37.4742 88.5675 36.442C87.975 35.3907 87.6787 34.1578 87.6787 32.7434C87.6787 31.0422 88.0514 29.513 88.7969 28.1559C89.5615 26.7796 90.5937 25.7092 91.8935 24.9446C93.1933 24.1609 94.6269 23.769 96.1943 23.769C98.5645 23.769 100.237 24.5432 101.212 26.0915L101.613 23.9984H106.086ZM95.7068 35.9546C96.5861 35.9546 97.3698 35.7444 98.0579 35.3238C98.7461 34.8842 99.2813 34.2821 99.6636 33.5175C100.046 32.7529 100.237 31.8736 100.237 30.8797C100.237 29.8284 99.9216 28.9969 99.2908 28.3852C98.6792 27.7736 97.819 27.4677 96.7104 27.4677C95.8311 27.4677 95.0474 27.6875 94.3593 28.1272C93.6711 28.5477 93.1359 29.1403 92.7536 29.9048C92.3713 30.6694 92.1802 31.5487 92.1802 32.5427C92.1802 33.594 92.486 34.4254 93.0977 35.0371C93.7285 35.6488 94.5982 35.9546 95.7068 35.9546Z" fill="url(#paint0_linear_2_29)"/>
<path d="M111.632 39.6533C110.294 39.6533 109.023 39.5099 107.819 39.2232C106.634 38.9174 105.707 38.5255 105.038 38.0477L106.758 34.8077C107.427 35.2474 108.239 35.601 109.195 35.8686C110.17 36.1362 111.145 36.27 112.119 36.27C113.133 36.27 113.888 36.1458 114.385 35.8973C114.882 35.6297 115.13 35.2569 115.13 34.7791C115.13 34.3968 114.91 34.1196 114.471 33.9476C114.031 33.7755 113.324 33.594 112.349 33.4028C111.24 33.1925 110.323 32.9632 109.596 32.7147C108.889 32.4662 108.268 32.0648 107.733 31.5105C107.217 30.937 106.959 30.1629 106.959 29.188C106.959 27.4868 107.666 26.1584 109.08 25.2026C110.514 24.2469 112.387 23.769 114.7 23.769C115.77 23.769 116.812 23.8837 117.825 24.1131C118.838 24.3425 119.698 24.6579 120.406 25.0593L118.8 28.3279C117.538 27.5442 116.019 27.1523 114.241 27.1523C113.266 27.1523 112.521 27.2957 112.005 27.5824C111.508 27.8691 111.259 28.2323 111.259 28.6719C111.259 29.0734 111.479 29.3696 111.919 29.5608C112.358 29.7328 113.094 29.924 114.127 30.1342C115.216 30.3445 116.105 30.5738 116.793 30.8223C117.5 31.0517 118.112 31.4436 118.628 31.9979C119.144 32.5522 119.402 33.3072 119.402 34.263C119.402 35.9833 118.676 37.3117 117.223 38.2484C115.79 39.185 113.926 39.6533 111.632 39.6533Z" fill="url(#paint1_linear_2_29)"/>
<path d="M131.595 30.7077L136.899 39.4239H131.71L128.04 33.4315L125.316 35.6966L124.57 39.4239H120.097L124.341 18.1494H128.814L126.434 30.0482L133.831 23.9984H139.652L131.595 30.7077Z" fill="url(#paint2_linear_2_29)"/>
<path d="M81.0842 15.0528V7.88477C81.0842 4.71776 83.6516 2.15039 86.8186 2.15039H148.463C151.63 2.15039 154.198 4.71776 154.198 7.88477V48.0254C154.198 51.1925 151.63 53.7598 148.463 53.7598H138.428L141.782 69.4107C142.075 70.7786 140.436 71.7134 139.408 70.7645L124.092 56.627H86.8186C83.6516 56.627 81.0842 54.0596 81.0842 50.8926V48.0254" stroke="url(#paint3_linear_2_29)" stroke-width="4.30079"/>
<defs>
<linearGradient id="paint0_linear_2_29" x1="87.6787" y1="18.1494" x2="99.7578" y2="52.2609" gradientUnits="userSpaceOnUse">
<stop stop-color="#485BFF"/>
<stop offset="1" stop-color="#FF59F8"/>
</linearGradient>
<linearGradient id="paint1_linear_2_29" x1="87.6787" y1="18.1494" x2="99.7578" y2="52.2609" gradientUnits="userSpaceOnUse">
<stop stop-color="#485BFF"/>
<stop offset="1" stop-color="#FF59F8"/>
</linearGradient>
<linearGradient id="paint2_linear_2_29" x1="87.6787" y1="18.1494" x2="99.7578" y2="52.2609" gradientUnits="userSpaceOnUse">
<stop stop-color="#485BFF"/>
<stop offset="1" stop-color="#FF59F8"/>
</linearGradient>
<linearGradient id="paint3_linear_2_29" x1="81.0842" y1="2.15039" x2="141.295" y2="76.6974" gradientUnits="userSpaceOnUse">
<stop stop-color="#485BFF"/>
<stop offset="1" stop-color="#FF59F8"/>
</linearGradient>
</defs>
</svg>
