<svg width="102" height="48" viewBox="0 0 102 48" fill="none" xmlns="http://www.w3.org/2000/svg">
<path d="M0 11.8011H2.90834V25.6344H0V11.8011Z" fill="#DBDCDD"/>
<path d="M14.6868 20.6567C14.6868 20.694 14.6681 20.955 14.6308 21.4397H7.04305C7.17977 22.0611 7.50292 22.5521 8.0125 22.9125C8.52208 23.2729 9.15595 23.4532 9.91411 23.4532C10.4361 23.4532 10.896 23.3786 11.2937 23.2294C11.7039 23.0679 12.0829 22.8193 12.4309 22.4837L13.9783 24.1616C13.0337 25.2429 11.6541 25.7836 9.83953 25.7836C8.70851 25.7836 7.70799 25.566 6.83798 25.131C5.96796 24.6836 5.29681 24.0684 4.82451 23.2854C4.35222 22.5023 4.11607 21.6137 4.11607 20.6194C4.11607 19.6375 4.346 18.7551 4.80587 17.972C5.27816 17.1766 5.91825 16.5614 6.72612 16.1264C7.54642 15.6789 8.45994 15.4552 9.46667 15.4552C10.4485 15.4552 11.3372 15.6665 12.1326 16.0891C12.9281 16.5117 13.5495 17.1207 13.997 17.9161C14.4568 18.6991 14.6868 19.6127 14.6868 20.6567ZM9.48531 17.6551C8.82659 17.6551 8.27351 17.8415 7.82607 18.2144C7.37863 18.5873 7.1052 19.0969 7.00577 19.7432H11.9462C11.8468 19.1093 11.5734 18.6059 11.1259 18.2331C10.6785 17.8478 10.1316 17.6551 9.48531 17.6551Z" fill="#DBDCDD"/>
<path d="M22.3465 25.1497C22.0606 25.361 21.7064 25.5225 21.2838 25.6344C20.8737 25.7338 20.4387 25.7836 19.9788 25.7836C18.7857 25.7836 17.8597 25.479 17.201 24.87C16.5547 24.261 16.2315 23.3662 16.2315 22.1854V18.0653H14.6841V15.8281H16.2315V13.3858H19.1399V15.8281H21.6381V18.0653H19.1399V22.1481C19.1399 22.5707 19.2455 22.9001 19.4568 23.1362C19.6805 23.3599 19.9912 23.4718 20.389 23.4718C20.8488 23.4718 21.2403 23.3475 21.5635 23.0989L22.3465 25.1497Z" fill="#DBDCDD"/>
<path d="M36.0785 15.4552C37.3338 15.4552 38.3282 15.8281 39.0615 16.5738C39.8072 17.3071 40.18 18.4133 40.18 19.8923V25.6344H37.2717V20.3397C37.2717 19.5443 37.1039 18.9539 36.7683 18.5686C36.4452 18.1709 35.9791 17.972 35.3701 17.972C34.6865 17.972 34.1459 18.1958 33.7481 18.6432C33.3504 19.0782 33.1516 19.7307 33.1516 20.6007V25.6344H30.2432V20.3397C30.2432 18.7613 29.6093 17.972 28.3416 17.972C27.6705 17.972 27.136 18.1958 26.7383 18.6432C26.3406 19.0782 26.1417 19.7307 26.1417 20.6007V25.6344H23.2334V15.6044H26.0112V16.7602C26.3841 16.3377 26.8377 16.0145 27.3722 15.7908C27.919 15.5671 28.5156 15.4552 29.1619 15.4552C29.8704 15.4552 30.5104 15.5981 31.0822 15.884C31.6539 16.1574 32.1137 16.5614 32.4618 17.0958C32.8719 16.5738 33.3877 16.1699 34.0091 15.884C34.643 15.5981 35.3328 15.4552 36.0785 15.4552Z" fill="#DBDCDD"/>
<path d="M51.9754 20.6567C51.9754 20.694 51.9567 20.955 51.9194 21.4397H44.3317C44.4684 22.0611 44.7915 22.5521 45.3011 22.9125C45.8107 23.2729 46.4445 23.4532 47.2027 23.4532C47.7247 23.4532 48.1846 23.3786 48.5823 23.2294C48.9925 23.0679 49.3715 22.8193 49.7195 22.4837L51.2669 24.1616C50.3223 25.2429 48.9427 25.7836 47.1281 25.7836C45.9971 25.7836 44.9966 25.566 44.1266 25.131C43.2566 24.6836 42.5854 24.0684 42.1131 23.2854C41.6408 22.5023 41.4047 21.6137 41.4047 20.6194C41.4047 19.6375 41.6346 18.7551 42.0945 17.972C42.5668 17.1766 43.2068 16.5614 44.0147 16.1264C44.835 15.6789 45.7485 15.4552 46.7553 15.4552C47.7371 15.4552 48.6258 15.6665 49.4212 16.0891C50.2167 16.5117 50.8381 17.1207 51.2856 17.9161C51.7454 18.6991 51.9754 19.6127 51.9754 20.6567ZM46.7739 17.6551C46.1152 17.6551 45.5621 17.8415 45.1147 18.2144C44.6672 18.5873 44.3938 19.0969 44.2944 19.7432H49.2348C49.1354 19.1093 48.862 18.6059 48.4145 18.2331C47.9671 17.8478 47.4202 17.6551 46.7739 17.6551Z" fill="#DBDCDD"/>
<path d="M68.9799 15.6044L66.9851 25.6344H64.2259L64.4123 24.6463C63.5796 25.4045 62.5542 25.7836 61.3362 25.7836C60.5532 25.7836 59.8323 25.6033 59.1736 25.2429C58.5149 24.8825 57.9866 24.3667 57.5889 23.6955C57.2036 23.0119 57.011 22.2103 57.011 21.2905C57.011 20.1844 57.2533 19.1901 57.7381 18.3076C58.2352 17.4128 58.9064 16.7167 59.7515 16.2196C60.5967 15.71 61.5289 15.4552 62.548 15.4552C64.0892 15.4552 65.1767 15.9586 65.8106 16.9653L66.0716 15.6044H68.9799ZM62.2311 23.3786C62.8028 23.3786 63.3124 23.2419 63.7598 22.9684C64.2073 22.6826 64.5553 22.2911 64.8038 21.7939C65.0524 21.2968 65.1767 20.725 65.1767 20.0787C65.1767 19.3951 64.9716 18.8545 64.5615 18.4568C64.1638 18.0591 63.6045 17.8602 62.8836 17.8602C62.3119 17.8602 61.8023 18.0031 61.3549 18.289C60.9074 18.5624 60.5594 18.9477 60.3108 19.4449C60.0623 19.942 59.938 20.5137 59.938 21.16C59.938 21.8436 60.1368 22.3843 60.5346 22.782C60.9447 23.1797 61.5102 23.3786 62.2311 23.3786Z" fill="url(#paint0_linear_4222_1582)"/>
<path d="M72.5861 25.7836C71.7161 25.7836 70.8895 25.6903 70.1065 25.5039C69.3359 25.305 68.7331 25.0503 68.2981 24.7395L69.4167 22.6329C69.8517 22.9187 70.38 23.1486 71.0014 23.3226C71.6353 23.4967 72.2691 23.5837 72.903 23.5837C73.5617 23.5837 74.0527 23.5029 74.3758 23.3413C74.699 23.1673 74.8605 22.9249 74.8605 22.6142C74.8605 22.3656 74.7176 22.1854 74.4318 22.0736C74.1459 21.9617 73.686 21.8436 73.0522 21.7193C72.3313 21.5826 71.7347 21.4335 71.2624 21.2719C70.8025 21.1103 70.3986 20.8493 70.0506 20.4889C69.715 20.116 69.5472 19.6127 69.5472 18.9788C69.5472 17.8726 70.0071 17.0088 70.9268 16.3874C71.859 15.7659 73.077 15.4552 74.5809 15.4552C75.2769 15.4552 75.9543 15.5298 76.613 15.6789C77.2717 15.8281 77.831 16.0332 78.2909 16.2942L77.2469 18.4195C76.4266 17.9099 75.4385 17.6551 74.2826 17.6551C73.6487 17.6551 73.164 17.7483 72.8284 17.9348C72.5053 18.1212 72.3437 18.3573 72.3437 18.6432C72.3437 18.9042 72.4866 19.0969 72.7725 19.2211C73.0584 19.333 73.5369 19.4573 74.208 19.594C74.9165 19.7307 75.4944 19.8799 75.9419 20.0414C76.4017 20.1906 76.7994 20.4454 77.135 20.8058C77.4706 21.1663 77.6384 21.6572 77.6384 22.2786C77.6384 23.3972 77.1661 24.261 76.2215 24.87C75.2893 25.479 74.0775 25.7836 72.5861 25.7836Z" fill="url(#paint1_linear_4222_1582)"/>
<path d="M85.5664 19.9669L89.0154 25.6344H85.641L83.2547 21.738L81.4835 23.2108L80.9988 25.6344H78.0905L80.8497 11.8011H83.758L82.2106 19.5381L87.0206 15.6044H90.8051L85.5664 19.9669Z" fill="url(#paint2_linear_4222_1582)"/>
<path d="M52.723 9.78764V5.12683C52.723 3.06756 54.3924 1.39819 56.4517 1.39819H96.5346C98.5938 1.39819 100.263 3.06756 100.263 5.12683V31.2273C100.263 33.2866 98.5938 34.956 96.5346 34.956H90.0094L92.1901 45.1325C92.3807 46.022 91.3148 46.6298 90.6464 46.0128L80.6878 36.8203H56.4517C54.3924 36.8203 52.723 35.1509 52.723 33.0916V31.2273" stroke="url(#paint3_linear_4222_1582)" stroke-width="2.79648"/>
<defs>
<linearGradient id="paint0_linear_4222_1582" x1="57.011" y1="11.8011" x2="64.8651" y2="33.9814" gradientUnits="userSpaceOnUse">
<stop stop-color="#485BFF"/>
<stop offset="1" stop-color="#FF59F8"/>
</linearGradient>
<linearGradient id="paint1_linear_4222_1582" x1="57.011" y1="11.8011" x2="64.8651" y2="33.9814" gradientUnits="userSpaceOnUse">
<stop stop-color="#485BFF"/>
<stop offset="1" stop-color="#FF59F8"/>
</linearGradient>
<linearGradient id="paint2_linear_4222_1582" x1="57.011" y1="11.8011" x2="64.8651" y2="33.9814" gradientUnits="userSpaceOnUse">
<stop stop-color="#485BFF"/>
<stop offset="1" stop-color="#FF59F8"/>
</linearGradient>
<linearGradient id="paint3_linear_4222_1582" x1="52.723" y1="1.39819" x2="91.8738" y2="49.8705" gradientUnits="userSpaceOnUse">
<stop stop-color="#485BFF"/>
<stop offset="1" stop-color="#FF59F8"/>
</linearGradient>
</defs>
</svg>
